<svg width="22" height="22" viewBox="0 0 22 22" fill="none" xmlns="http://www.w3.org/2000/svg">
<path d="M11 0.4375C8.91094 0.4375 6.86879 1.05698 5.13179 2.2176C3.3948 3.37822 2.04098 5.02786 1.24153 6.95791C0.442077 8.88795 0.232904 11.0117 0.64046 13.0606C1.04802 15.1096 2.054 16.9916 3.53119 18.4688C5.00838 19.946 6.89044 20.952 8.93936 21.3595C10.9883 21.7671 13.1121 21.5579 15.0421 20.7585C16.9721 19.959 18.6218 18.6052 19.7824 16.8682C20.943 15.1312 21.5625 13.0891 21.5625 11C21.5571 8.2003 20.4426 5.5168 18.4629 3.53711C16.4832 1.55742 13.7997 0.442869 11 0.4375ZM14.8289 13.6711C14.9815 13.8251 15.0671 14.0332 15.0671 14.25C15.0671 14.4668 14.9815 14.6749 14.8289 14.8289C14.6736 14.9791 14.466 15.063 14.25 15.063C14.034 15.063 13.8264 14.9791 13.6711 14.8289L11 12.1477L8.32891 14.8289C8.17361 14.9791 7.96603 15.063 7.75 15.063C7.53398 15.063 7.3264 14.9791 7.1711 14.8289C7.01853 14.6749 6.93293 14.4668 6.93293 14.25C6.93293 14.0332 7.01853 13.8251 7.1711 13.6711L9.85235 11L7.1711 8.32891C7.04153 8.17104 6.97532 7.97063 6.98534 7.76665C6.99536 7.56267 7.08089 7.36971 7.2253 7.2253C7.36971 7.08089 7.56267 6.99535 7.76665 6.98534C7.97063 6.97532 8.17104 7.04153 8.32891 7.17109L11 9.85234L13.6711 7.17109C13.829 7.04153 14.0294 6.97532 14.2334 6.98534C14.4373 6.99535 14.6303 7.08089 14.7747 7.2253C14.9191 7.36971 15.0047 7.56267 15.0147 7.76665C15.0247 7.97063 14.9585 8.17104 14.8289 8.32891L12.1477 11L14.8289 13.6711Z" fill="#B7BAC3"/>
</svg>
