<svg width="98" height="98" viewBox="0 0 98 98" fill="none" xmlns="http://www.w3.org/2000/svg">
<rect x="0.5" y="0.5" width="97" height="97" rx="7.5" fill="white"/>
<path d="M60 38H38C37.4696 38 36.9609 38.2107 36.5858 38.5858C36.2107 38.9609 36 39.4696 36 40V58C36 58.5304 36.2107 59.0391 36.5858 59.4142C36.9609 59.7893 37.4696 60 38 60H60C60.5304 60 61.0391 59.7893 61.4142 59.4142C61.7893 59.0391 62 58.5304 62 58V40C62 39.4696 61.7893 38.9609 61.4142 38.5858C61.0391 38.2107 60.5304 38 60 38ZM60 40V52.8438L56.7412 49.5863C56.5555 49.4005 56.335 49.2531 56.0923 49.1526C55.8497 49.052 55.5896 49.0003 55.3269 49.0003C55.0642 49.0003 54.8041 49.052 54.5614 49.1526C54.3187 49.2531 54.0982 49.4005 53.9125 49.5863L51.4125 52.0863L45.9125 46.5863C45.5375 46.2115 45.029 46.0009 44.4987 46.0009C43.9685 46.0009 43.46 46.2115 43.085 46.5863L38 51.6712V40H60ZM38 54.5L44.5 48L54.5 58H38V54.5ZM60 58H57.3288L52.8288 53.5L55.3288 51L60 55.6725V58ZM51 45.5C51 45.2033 51.088 44.9133 51.2528 44.6666C51.4176 44.42 51.6519 44.2277 51.926 44.1142C52.2001 44.0006 52.5017 43.9709 52.7926 44.0288C53.0836 44.0867 53.3509 44.2296 53.5607 44.4393C53.7704 44.6491 53.9133 44.9164 53.9712 45.2074C54.0291 45.4983 53.9993 45.7999 53.8858 46.074C53.7723 46.3481 53.58 46.5824 53.3334 46.7472C53.0867 46.912 52.7967 47 52.5 47C52.1022 47 51.7206 46.842 51.4393 46.5607C51.158 46.2794 51 45.8978 51 45.5Z" fill="#6F7588"/>
<rect x="0.5" y="0.5" width="97" height="97" rx="7.5" stroke="#E6E7E8" stroke-linecap="round" stroke-dasharray="5 5"/>
</svg>
