<svg width="24" height="24" viewBox="0 0 24 24" fill="none" xmlns="http://www.w3.org/2000/svg">
<g clip-path="url(#clip0_438_3037)">
<path d="M12.422 5.74688L13.322 4.8375C14.1079 4.12118 15.1396 3.73522 16.2027 3.75984C17.2658 3.78445 18.2785 4.21774 19.0304 4.96966C19.7824 5.72158 20.2157 6.73432 20.2403 7.79741C20.2649 8.86051 19.8789 9.89221 19.1626 10.6781L16.322 13.5094C15.9396 13.8932 15.4852 14.1977 14.9849 14.4055C14.4846 14.6133 13.9481 14.7203 13.4063 14.7203C12.8646 14.7203 12.3281 14.6133 11.8278 14.4055C11.3275 14.1977 10.8731 13.8932 10.4907 13.5094" stroke="#B7BAC3" stroke-width="2" stroke-linecap="round" stroke-linejoin="round"/>
<path d="M11.5782 18.2531L10.6782 19.1625C9.89227 19.8788 8.86057 20.2648 7.79748 20.2402C6.73438 20.2155 5.72164 19.7823 4.96972 19.0303C4.2178 18.2784 3.78451 17.2657 3.7599 16.2026C3.73529 15.1395 4.12124 14.1078 4.83756 13.3219L7.67819 10.4906C8.06056 10.1068 8.51494 9.80228 9.01528 9.59448C9.51561 9.38669 10.052 9.27972 10.5938 9.27972C11.1356 9.27972 11.672 9.38669 12.1724 9.59448C12.6727 9.80228 13.1271 10.1068 13.5094 10.4906" stroke="#B7BAC3" stroke-width="2" stroke-linecap="round" stroke-linejoin="round"/>
</g>
<defs>
<clipPath id="clip0_438_3037">
<rect width="24" height="24" fill="white"/>
</clipPath>
</defs>
</svg>
