<svg width="82" height="82" viewBox="0 0 82 82" fill="none" xmlns="http://www.w3.org/2000/svg">
<rect x="0.5" y="0.5" width="81" height="81" rx="7.5" fill="white"/>
<path fill-rule="evenodd" clip-rule="evenodd" d="M41.7501 31.6665C41.7501 31.2523 41.4143 30.9165 41.0001 30.9165C40.5859 30.9165 40.2501 31.2523 40.2501 31.6665V40.2498H31.6667C31.2525 40.2498 30.9167 40.5856 30.9167 40.9998C30.9167 41.4141 31.2525 41.7498 31.6667 41.7498H40.2501V50.3332C40.2501 50.7474 40.5859 51.0832 41.0001 51.0832C41.4143 51.0832 41.7501 50.7474 41.7501 50.3332V41.7498H50.3334C50.7476 41.7498 51.0834 41.4141 51.0834 40.9998C51.0834 40.5856 50.7476 40.2498 50.3334 40.2498H41.7501V31.6665Z" fill="#6F7588"/>
<rect x="0.5" y="0.5" width="81" height="81" rx="7.5" stroke="#E6E7E8" stroke-linecap="round" stroke-dasharray="5 5"/>
</svg>
