<svg width="24" height="24" viewBox="0 0 24 24" fill="none" xmlns="http://www.w3.org/2000/svg">
<path d="M7.58791 21.6192C16.5348 21.6192 21.4284 14.2065 21.4284 7.77867C21.4284 7.56819 21.4284 7.35849 21.4142 7.14985C22.3662 6.46122 23.1879 5.60874 23.8409 4.63191C22.9532 5.02522 22.0114 5.28339 21.0469 5.3972C22.0625 4.78918 22.8225 3.83317 23.1855 2.70671C22.2306 3.27336 21.186 3.67274 20.0967 3.88744C18.2545 1.92852 15.1731 1.83394 13.2141 3.67616C11.9507 4.86426 11.4149 6.63456 11.8069 8.32399C7.89613 8.12773 4.252 6.2805 1.78201 3.24149C0.490901 5.46411 1.15029 8.30766 3.28808 9.73496C2.51384 9.71204 1.75672 9.50313 1.08021 9.12616C1.08021 9.14618 1.08021 9.16699 1.08021 9.1878C1.08074 11.5034 2.713 13.4976 4.98277 13.9563C4.26675 14.1515 3.51516 14.1802 2.78623 14.0398C3.42349 16.0214 5.24964 17.3789 7.33079 17.4179C5.60817 18.7717 3.48039 19.5064 1.28964 19.5043C0.902654 19.5035 0.516191 19.48 0.131836 19.4339C2.3563 20.8615 4.94484 21.6186 7.58791 21.6152" fill="#1DA1F2"/>
</svg>
